<?xml version="1.0" encoding="UTF-8"?>
<svg id="Layer_2" data-name="Layer 2" xmlns="http://www.w3.org/2000/svg" viewBox="0 0 584.87 512.86">
  <g id="Layer_1-2" data-name="Layer 1">
    <g>
      <path d="m284.79,511.82c-33.17,0-67.46,0-91.42-13.95-25.49-14.84-37.37-44.18-37.37-92.34,0-17.43,1.58-34.71,4.71-51.35l.1-.54-.55-.07c-51.63-6.48-89.29-18.4-115.14-36.42C15.46,296.47,1.04,267.81,1.04,229.54c0-55.68,31.09-112.9,85.31-156.99,27.15-22.08,58.31-39.52,92.64-51.84C215.35,7.66,253.52,1.04,292.44,1.04s77.09,6.62,113.45,19.67c34.32,12.32,65.49,29.76,92.63,51.84,54.21,44.09,85.31,101.31,85.31,156.99,0,38.27-14.42,66.93-44.08,87.61-25.85,18.03-63.52,29.94-115.15,36.42l-.55.07.1.54c3.13,16.65,4.71,33.92,4.71,51.35,0,48.16-11.87,77.5-37.36,92.34-23.9,13.91-58.09,13.95-91.19,13.95h-15.53Zm211.55-264.15c-13.27,0-27.07,8.25-35.99,21.54-13.16,19.57-11.5,43.81,3.69,54.02,4.43,2.98,9.77,4.55,15.43,4.55,13.27,0,27.06-8.25,35.99-21.53,13.16-19.58,11.5-43.82-3.69-54.03-4.43-2.98-9.77-4.55-15.43-4.55Zm-218.96-58.33c-31.72,0-57.53,25.81-57.53,57.53s25.81,57.53,57.53,57.53,57.53-25.81,57.53-57.53-25.81-57.53-57.53-57.53Zm-176.19,19.36c-27.75,0-50.32,19.9-50.32,44.35s22.57,44.35,50.32,44.35,50.32-19.9,50.32-44.35-22.57-44.35-50.32-44.35Zm320.49-83.14c-7.36,0-14.37,2.05-20.26,5.92-9.44,6.21-15.4,16.48-16.77,28.92-1.37,12.41,1.99,25.49,9.46,36.84,10.25,15.6,26.73,25.29,43,25.29,7.37,0,14.37-2.05,20.27-5.93,19.45-12.78,22.73-42.28,7.31-65.76-10.26-15.59-26.74-25.28-43.01-25.28ZM171.13,54.26c-17.22,0-35.29,12.03-46.04,30.64-14.9,25.82-11.11,56.02,8.44,67.31,4.94,2.85,10.48,4.3,16.47,4.3,17.22,0,35.29-12.03,46.04-30.64,14.9-25.82,11.12-56.01-8.44-67.31-4.94-2.85-10.48-4.3-16.47-4.3Zm152.98-23.37c-16.58,0-30.03,7.25-35.99,19.4-4.65,9.49-4.2,20.77,1.29,31.77,5.46,10.95,15.26,20.31,27.6,26.36,8.87,4.35,18.43,6.65,27.66,6.65,16.58,0,30.03-7.25,35.99-19.4,9.58-19.54-3.38-45.61-28.89-58.12-8.87-4.35-18.43-6.65-27.66-6.65Z"/>
      <path d="m292.44,1.56c38.86,0,76.97,6.61,113.27,19.64,34.27,12.3,65.38,29.71,92.48,51.75,54.09,43.99,85.11,101.06,85.11,156.59,0,38.09-14.35,66.61-43.86,87.19-25.78,17.98-63.37,29.86-114.91,36.33l-1.09.14.2,1.08c3.12,16.61,4.7,33.86,4.7,51.26,0,47.95-11.79,77.15-37.1,91.89-23.84,13.88-58.06,13.88-91.16,13.88h-3.8s-3.85,0-3.85,0h-3.85s-3.8,0-3.8,0c-33.09,0-67.32,0-91.16-13.88-25.32-14.74-37.11-43.93-37.11-91.88,0-17.4,1.58-34.64,4.7-51.26l.2-1.08-1.09-.14c-51.54-6.47-89.13-18.36-114.91-36.33C15.9,296.15,1.56,267.63,1.56,229.54c0-55.52,31.02-112.6,85.12-156.59,27.1-22.04,58.22-39.45,92.49-51.75C215.47,8.17,253.58,1.56,292.44,1.56m52.23,114.03c16.78,0,30.41-7.36,36.45-19.69,9.71-19.79-3.36-46.18-29.12-58.82-8.94-4.39-18.59-6.71-27.89-6.71-16.78,0-30.41,7.36-36.45,19.69-4.73,9.64-4.27,21.08,1.29,32.23,5.51,11.05,15.4,20.5,27.84,26.59,8.94,4.39,18.58,6.71,27.89,6.71m-194.67,41.44c17.4,0,35.65-12.13,46.49-30.9,15.05-26.07,11.18-56.58-8.63-68.02-5.02-2.9-10.65-4.37-16.73-4.37-17.4,0-35.65,12.13-46.49,30.9-15.04,26.07-11.17,56.58,8.63,68.02,5.02,2.9,10.65,4.37,16.73,4.37m287.11,66.02c7.47,0,14.57-2.08,20.55-6.01,19.69-12.94,23.04-42.76,7.46-66.48-10.35-15.74-27-25.51-43.44-25.51-7.46,0-14.57,2.08-20.55,6.01-9.57,6.3-15.61,16.7-17,29.3-1.38,12.52,2.01,25.73,9.54,37.18,10.35,15.74,26.99,25.52,43.43,25.52m-159.73,81.88c32.01,0,58.05-26.04,58.05-58.05s-26.04-58.05-58.05-58.05-58.05,26.04-58.05,58.05,26.04,58.05,58.05,58.05m-176.19-7c28.03,0,50.84-20.13,50.84-44.87s-22.81-44.87-50.84-44.87-50.84,20.13-50.84,44.87,22.81,44.87,50.84,44.87m378.28,30.38c13.44,0,27.4-8.34,36.42-21.76,13.32-19.82,11.6-44.38-3.83-54.75-4.52-3.04-9.95-4.64-15.72-4.64-13.45,0-27.4,8.34-36.43,21.77-13.32,19.81-11.6,44.37,3.83,54.74,4.52,3.04,9.95,4.64,15.72,4.64M292.44.52C131.22.52.52,115.18.52,229.54c0,80.6,64.92,112.65,159.68,124.55-3.08,16.4-4.72,33.65-4.72,51.45,0,105.01,57.23,106.8,129.31,106.8,2.54,0,5.08,0,7.65,0s5.12,0,7.65,0c72.08,0,129.3-1.78,129.3-106.8,0-17.8-1.64-35.05-4.72-51.45,94.77-11.9,159.68-43.95,159.68-124.55C584.35,115.18,453.66.52,292.44.52h0Zm52.23,114.03c-8.85,0-18.33-2.13-27.43-6.6-25.3-12.4-38.12-38.12-28.65-57.43,6.06-12.37,19.79-19.11,35.52-19.11,8.85,0,18.33,2.13,27.43,6.6,25.3,12.41,38.12,38.12,28.65,57.43-6.06,12.37-19.79,19.11-35.52,19.11h0Zm-194.67,41.44c-5.71,0-11.23-1.36-16.21-4.23-19.34-11.17-23.03-40.98-8.25-66.6,10.99-19.03,29.09-30.38,45.59-30.38,5.71,0,11.23,1.36,16.21,4.23,19.34,11.17,23.04,40.98,8.25,66.6-10.99,19.03-29.08,30.38-45.59,30.38h0Zm287.11,66.02c-15.55,0-32.05-9.06-42.57-25.05-15.3-23.26-12.09-52.38,7.16-65.04,6.02-3.96,12.9-5.83,19.98-5.83,15.55,0,32.06,9.06,42.57,25.04,15.29,23.27,12.09,52.39-7.16,65.04-6.02,3.96-12.91,5.84-19.98,5.84h0Zm-159.73,81.88c-31.49,0-57.01-25.52-57.01-57.01s25.52-57.01,57.01-57.01,57.01,25.53,57.01,57.01-25.53,57.01-57.01,57.01h0Zm-176.19-7c-27.51,0-49.8-19.62-49.8-43.83s22.29-43.83,49.8-43.83,49.8,19.63,49.8,43.83-22.3,43.83-49.8,43.83h0Zm378.28,30.38c-5.43,0-10.63-1.44-15.14-4.46-14.98-10.07-16.57-33.93-3.55-53.3,9.1-13.55,22.94-21.31,35.56-21.31,5.43,0,10.63,1.44,15.14,4.46,14.98,10.07,16.57,33.94,3.55,53.31-9.1,13.54-22.94,21.3-35.56,21.3h0Z"/>
    </g>
  </g>
</svg>